<!--?xml version="1.0" encoding="utf-8"?-->
<!-- Generator: Adobe Illustrator 15.1.0, SVG Export Plug-In . SVG Version: 6.00 Build 0)  -->

<svg version="1.1" id="_x32_" xmlns="http://www.w3.org/2000/svg" xmlns:xlink="http://www.w3.org/1999/xlink" x="0px" y="0px" width="512px" height="512px" viewBox="0 0 512 512" style="width: 128px; height: 128px; opacity: 1;" xml:space="preserve">
<style type="text/css">

	.st0{fill:#4B4B4B;}

</style>
<g>
	<path class="st0" d="M326.68,251.641c-24.609,10.922-78.844,0.828-46.891-4.203c76.703-6.266,123.969-65.063,108.578-69.063
		c-27.219,10.719-52.578,0.563-57.547-2.5C466.227,159.078,448.945,0,448.945,0s-17.703,26.953-133.328,66.859
		c-117.844,40.656-190.406,206.156-190.406,206.156c-17.469,33.891-86.516,174.766-86.516,174.766
		c-19,36.375,15.844,57.859,36.281,20.313c39.188-72.125,64.469-138.031,124.078-139.906
		C285.946,325.469,345.368,248.063,326.68,251.641z" style="fill: rgb(75, 75, 75);"></path>
	<path class="st0" d="M465.57,478.25c0-90.063-59.093-109.578-59.093-109.578v-35.703h-41.875h-0.219h-31.781h-0.219h-41.875v35.703
		c0,0-59.109,19.516-59.109,109.578h-13.203V512h114.188h0.219h31.781h0.219h114.187v-33.75H465.57z M401.258,468.406H295.711
		v-55.234h105.547V468.406z" style="fill: rgb(75, 75, 75);"></path>
</g>
</svg>
